<svg width="21" height="28" viewBox="0 0 21 28" fill="none" xmlns="http://www.w3.org/2000/svg">
<path d="M17.0625 18.4517V27.3522C17.0625 27.7099 16.7686 28 16.4062 28C16.2873 28 16.1707 27.968 16.0687 27.9076L10.5 24.6103L4.93139 27.9076C4.6206 28.0916 4.2175 27.9921 4.03102 27.6855C3.96983 27.5847 3.9375 27.4696 3.9375 27.3522V18.4517C1.53703 16.5527 0 13.6346 0 10.3622C0 4.63932 4.70101 0 10.5 0C16.299 0 21 4.63932 21 10.3622C21 13.6346 19.4629 16.5527 17.0625 18.4517ZM6.5625 19.9712V23.9207L10.5 21.5892L14.4375 23.9207V19.9712C13.2216 20.457 11.8924 20.7244 10.5 20.7244C9.10757 20.7244 7.77844 20.457 6.5625 19.9712ZM10.5 18.1339C14.8492 18.1339 18.375 14.6544 18.375 10.3622C18.375 6.07004 14.8492 2.59055 10.5 2.59055C6.15076 2.59055 2.625 6.07004 2.625 10.3622C2.625 14.6544 6.15076 18.1339 10.5 18.1339Z" fill="black"/>
</svg>
