<svg width="24" height="24" viewBox="0 0 24 24" fill="none" xmlns="http://www.w3.org/2000/svg">
<path d="M10.9761 1.43863C13.0273 1.34245 15.0582 1.88308 16.7901 2.98638C15.6473 4.73867 14.2765 6.10816 13.5696 6.76063C13.0142 7.27255 13.0154 8.12213 13.4879 8.65176C14.2758 9.52686 14.7928 10.6117 14.9764 11.7747C15.1776 11.6633 15.3821 11.5593 15.589 11.4633C15.825 11.353 16.0667 11.2513 16.3141 11.1571C16.0453 9.89393 15.4548 8.7216 14.5999 7.75361C15.3541 7.05087 16.7478 5.64709 17.9392 3.83824C19.8535 5.47769 21.0767 7.78066 21.363 10.2846C21.8515 10.2864 22.335 10.3115 22.8069 10.3601C22.2687 4.54956 17.3798 0 11.428 0C5.11633 0 0 5.11575 0 11.4267C0 17.7377 5.11633 22.8535 11.428 22.8535H11.5263C11.5504 22.7857 11.5786 22.7195 11.6109 22.6552C11.8337 22.2119 12.064 21.7896 12.2983 21.388C12.0114 21.4126 11.7212 21.4251 11.428 21.4251C8.70359 21.4251 6.23399 20.3356 4.43008 18.5685C4.43008 18.5479 4.42893 18.5273 4.42722 18.5062C4.28723 16.9013 4.40379 15.9734 4.60321 15.4387C4.78149 14.9587 5.02262 14.7971 5.27747 14.7056C5.4306 14.6502 5.60602 14.6159 5.82315 14.5862L6.03057 14.5605C6.19057 14.5411 6.37456 14.5188 6.52998 14.492C7.03796 14.4023 7.70021 14.196 8.06819 13.4601C8.38075 12.8351 8.35789 12.1729 8.2739 11.6216C8.23161 11.3416 8.16876 11.0645 8.10991 10.8137L8.08705 10.7137C8.03562 10.4937 7.98877 10.2966 7.95334 10.1035C7.86877 9.64417 7.88077 9.3745 7.9602 9.1991C8.01905 9.06769 8.17847 8.85401 8.76873 8.68489C10.1018 8.30438 11.0446 7.74219 11.624 7.00116C12.2166 6.24243 12.3611 5.38199 12.264 4.55813C12.168 3.75311 11.8412 2.96581 11.4715 2.27735C11.3149 1.98597 11.1458 1.7043 10.9761 1.43863ZM9.39042 1.63631C9.67155 2.04196 9.96296 2.4876 10.2132 2.95381C10.5441 3.56857 10.7795 4.17419 10.8452 4.7261C10.9081 5.25916 10.8121 5.72023 10.4978 6.12188C10.1709 6.54067 9.54241 6.97888 8.37618 7.31197C7.53736 7.55193 6.94653 7.97072 6.6574 8.61233C6.38884 9.20938 6.45455 9.85271 6.54884 10.3623C6.59055 10.5914 6.64597 10.8263 6.69626 11.0422L6.71911 11.1382C6.7774 11.389 6.82825 11.6176 6.86196 11.8364C6.92996 12.282 6.90653 12.5894 6.79054 12.8214C6.72997 12.9425 6.64197 13.0213 6.28313 13.0842C6.16028 13.1059 6.04943 13.119 5.91915 13.135C5.83344 13.1453 5.7403 13.1562 5.62945 13.1716C5.34508 13.2052 5.06506 13.2688 4.79406 13.3613C4.15638 13.591 3.59412 14.0543 3.26442 14.9405C3.08786 15.4135 2.98043 16.0003 2.94786 16.7276C1.95215 15.139 1.42547 13.3015 1.4285 11.4267C1.4285 6.60294 4.84549 2.57673 9.39042 1.63631ZM23.3989 11.5896C21.0316 11.2073 18.2294 11.4924 16.0724 12.498C14.989 13.0036 14.0302 13.7092 13.3879 14.6445C12.7354 15.5941 12.4366 16.7442 12.6297 18.0611C12.7208 18.711 12.9242 19.34 13.2308 19.9202C14.2939 18.3541 15.5842 16.9548 17.0592 15.7683C17.5383 15.3831 18.0393 15.026 18.5597 14.6988C18.7503 14.5797 18.9447 14.4667 19.1425 14.36L19.1574 14.352L19.1677 14.3468L19.1705 14.3451L19.1728 14.344C19.3083 14.276 19.4653 14.2645 19.6092 14.3122C19.7531 14.3599 19.8722 14.4628 19.9402 14.5982C20.0082 14.7337 20.0197 14.8906 19.972 15.0345C19.9243 15.1784 19.8214 15.2975 19.6859 15.3655L19.6808 15.3678C19.6394 15.389 19.5984 15.4111 19.5579 15.4341C19.4682 15.4844 19.3351 15.5615 19.1648 15.6678C18.6824 15.9717 18.2181 16.3032 17.774 16.6608C16.2585 17.88 14.9511 19.3372 13.9028 20.9755C13.8896 20.9961 13.8753 21.0155 13.8599 21.0343C13.4107 21.7218 13.0009 22.4343 12.6325 23.1683C12.5982 23.2354 12.5774 23.3086 12.5715 23.3838C12.5656 23.459 12.5746 23.5345 12.598 23.6062C12.6215 23.6779 12.6589 23.7442 12.708 23.8013C12.7572 23.8585 12.8172 23.9053 12.8846 23.9392C12.952 23.973 13.0254 23.9932 13.1006 23.9986C13.1758 24.0039 13.2513 23.9943 13.3228 23.9704C13.3943 23.9464 13.4603 23.9085 13.5171 23.8589C13.5739 23.8093 13.6203 23.749 13.6536 23.6813C13.9948 23.0015 14.3734 22.3412 14.7879 21.7034C15.285 22.0673 15.8313 22.341 16.3878 22.5284C17.2592 22.8226 18.1723 22.914 18.9974 22.8146C19.8134 22.7164 20.603 22.4227 21.1607 21.8828C21.8881 21.1783 22.3138 20.5144 22.5515 19.8128C22.7829 19.1284 22.8172 18.4548 22.8389 17.7994L22.8458 17.5926C22.8841 16.3437 22.9292 14.8662 23.9389 12.5837C23.9831 12.4838 24.0038 12.3751 23.9994 12.2659C23.995 12.1568 23.9657 12.0501 23.9136 11.9541C23.8615 11.858 23.788 11.7752 23.6989 11.7121C23.6098 11.6489 23.5068 11.607 23.3989 11.5896Z" fill="#488466"/>
</svg>
