<svg width="20" height="20" viewBox="0 0 20 20" fill="none" xmlns="http://www.w3.org/2000/svg">
<path d="M10 19.2308C15.098 19.2308 19.2308 15.098 19.2308 10C19.2308 4.90199 15.098 0.769231 10 0.769231C4.90199 0.769231 0.769231 4.90199 0.769231 10C0.769231 15.098 4.90199 19.2308 10 19.2308Z" stroke="#CFCFCF" stroke-width="1.5" stroke-linecap="round" stroke-linejoin="round"/>
<path d="M10 14.1026H10.0103V14.1128H10V14.1026Z" stroke="#CFCFCF" stroke-width="2.25" stroke-linejoin="round"/>
<path d="M8.54974 5.47283C8.94974 5.07283 9.47282 4.87283 9.9959 4.87181C10.266 4.87082 10.5336 4.92343 10.7833 5.0266C11.0329 5.12977 11.2596 5.28144 11.4503 5.47283C11.8503 5.87283 12.0513 6.39796 12.0513 6.92309C12.0518 7.19253 11.9989 7.4594 11.8958 7.70831C11.7926 7.95723 11.6412 8.18325 11.4503 8.37335C11.2596 8.56465 11.0329 8.71626 10.7832 8.81942C10.5336 8.92258 10.266 8.97525 9.9959 8.97437L10 10" stroke="#CFCFCF" stroke-width="1.5" stroke-linecap="round" stroke-linejoin="round"/>
</svg>
