<svg width="21" height="19" viewBox="0 0 21 19" fill="none" xmlns="http://www.w3.org/2000/svg">
<g opacity="0.5">
<path d="M20.2226 11.1627L6.90068 18.8541C6.37541 19.1574 5.69004 18.9548 5.37083 18.4019L0.166273 9.38731C-0.15294 8.83441 0.0142906 8.13956 0.539556 7.8363L13.8615 0.144876C14.3868 -0.158386 15.0721 0.0442133 15.3913 0.597106L20.5959 9.61166C20.9151 10.1646 20.7479 10.8594 20.2226 11.1627Z" fill="#24C387"/>
<path d="M20.2229 11.1636L6.90097 18.8551C6.36714 19.1633 5.69553 18.9647 5.37112 18.4028C5.27917 18.2436 5.26475 18.0516 5.33219 17.8871L9.57752 8.75862C9.62367 8.64517 9.70413 8.55598 9.80309 8.49885C9.90205 8.44171 10.0195 8.41663 10.1408 8.43339L20.169 9.32107C20.3452 9.3449 20.5042 9.45339 20.5962 9.61264C20.9206 10.1746 20.7567 10.8554 20.2229 11.1636Z" fill="#24C387"/>
<path d="M13.8615 0.144876L0.539556 7.8363C0.00572658 8.14451 -0.158145 8.8254 0.166273 9.38731C0.25822 9.54656 0.417281 9.65505 0.593441 9.67888L10.8492 10.952C11.0871 10.9816 11.3107 10.8525 11.404 10.6317L15.4293 1.11338C15.4977 0.948359 15.4833 0.756363 15.3913 0.597106C15.0669 0.0351987 14.3953 -0.16333 13.8615 0.144876Z" fill="#28DF99"/>
</g>
</svg>
