<svg width="27" height="27" viewBox="0 0 27 27" fill="none" xmlns="http://www.w3.org/2000/svg">
<path d="M18.3201 2.33407e-07C16.965 -0.000310553 15.6286 0.316832 14.4181 0.926012C13.2076 1.53519 12.1567 2.41947 11.3494 3.50799C10.5422 4.59651 10.0011 5.85899 9.76963 7.19428C9.53812 8.52957 9.62258 9.90052 10.0163 11.1973L0 21.2143V27H5.78528L15.8015 16.983C16.9951 17.3453 18.2528 17.4461 19.4889 17.2783C20.7249 17.1106 21.9103 16.6784 22.9642 16.011C24.0181 15.3437 24.9158 14.457 25.596 13.4114C26.2763 12.3657 26.7231 11.1857 26.9061 9.95175C27.0891 8.71777 27.0039 7.45885 26.6564 6.26076C26.3089 5.06268 25.7072 3.9536 24.8923 3.00911C24.0775 2.06462 23.0686 1.30692 21.9344 0.787639C20.8002 0.26836 19.5674 -0.000289068 18.3201 2.33407e-07ZM18.3201 15.4286C17.6562 15.4282 16.996 15.3301 16.3608 15.1374L15.2548 14.8018L14.4381 15.6185L11.371 18.6859L10.0413 17.3571L8.67792 18.7206L10.0076 20.0504L8.47833 21.5798L7.14868 20.25L5.78528 21.6135L7.11493 22.9432L4.98691 25.0714H1.92843V22.0127L11.3797 12.5608L12.1973 11.744L11.8618 10.638C11.4496 9.27931 11.4764 7.82526 11.9383 6.48267C12.4001 5.14008 13.2736 3.97732 14.4343 3.1598C15.5951 2.34227 16.984 1.91162 18.4037 1.92908C19.8233 1.94655 21.2012 2.41125 22.3415 3.25709C23.4818 4.10292 24.3264 5.28681 24.7551 6.64036C25.1838 7.99391 25.1748 9.44818 24.7293 10.7963C24.2839 12.1445 23.4247 13.3178 22.2741 14.1494C21.1234 14.9811 19.7398 15.4287 18.3201 15.4286Z" fill="#457E61"/>
</svg>
