<svg width="31" height="29" viewBox="0 0 31 29" fill="none" xmlns="http://www.w3.org/2000/svg">
<path d="M15.5097 24L9.04667 14.6182C7.98878 13.3343 7.30752 11.7678 7.08223 10.1013C6.85693 8.43472 7.09688 6.73668 7.77412 5.2049C8.45136 3.67311 9.53802 2.37064 10.9075 1.44915C12.2771 0.527671 13.8731 0.0251098 15.5097 0C17.7784 0.0230457 19.9458 0.969375 21.5371 2.63172C23.1284 4.29407 24.014 6.53694 23.9998 8.86909C24.0007 10.9036 23.3269 12.8776 22.0896 14.4655L15.5097 24ZM15.5097 2.18182C13.8031 2.20196 12.174 2.9175 10.9801 4.17131C9.78622 5.42513 9.1252 7.11472 9.14218 8.86909C9.14929 10.4704 9.70973 12.0169 10.7235 13.2327L15.5097 20.2036L20.4234 13.0909C21.3574 11.8925 21.8698 10.4047 21.8773 8.86909C21.8943 7.11472 21.2333 5.42513 20.0394 4.17131C18.8455 2.9175 17.2164 2.20196 15.5097 2.18182Z" fill="white"/>
<path d="M15.5 11C16.8807 11 18 10.1046 18 9C18 7.89543 16.8807 7 15.5 7C14.1193 7 13 7.89543 13 9C13 10.1046 14.1193 11 15.5 11Z" fill="white"/>
<path d="M28.7857 9H26.5714V11.2222H28.7857V26.7778H2.21429V11.2222H4.42857V9H2.21429C1.62702 9 1.06381 9.23413 0.648549 9.65087C0.23329 10.0676 0 10.6329 0 11.2222V26.7778C0 27.3671 0.23329 27.9324 0.648549 28.3491C1.06381 28.7659 1.62702 29 2.21429 29H28.7857C29.373 29 29.9362 28.7659 30.3514 28.3491C30.7667 27.9324 31 27.3671 31 26.7778V11.2222C31 10.6329 30.7667 10.0676 30.3514 9.65087C29.9362 9.23413 29.373 9 28.7857 9Z" fill="white"/>
</svg>
