<svg width="24" height="27" viewBox="0 0 24 27" fill="none" xmlns="http://www.w3.org/2000/svg">
<path fill-rule="evenodd" clip-rule="evenodd" d="M17.3333 16.2C19.0513 16.2001 20.7029 16.8717 21.9437 18.0747C23.1845 19.2777 23.9188 20.9193 23.9933 22.6571L24 22.95V24.3C24.0002 24.9812 23.7461 25.6373 23.2887 26.1367C22.8312 26.6362 22.2042 26.9422 21.5333 26.9933L21.3333 27H2.66667C1.9939 27.0002 1.34591 26.743 0.852603 26.2798C0.359294 25.8166 0.0571244 25.1818 0.00666682 24.5025L0 24.3V22.95C9.92566e-05 21.2106 0.663389 19.5383 1.85155 18.282C3.0397 17.0257 4.661 16.2822 6.37733 16.2068L6.66667 16.2H17.3333ZM17.3333 18.9H6.66667C5.64639 18.8999 4.66465 19.2946 3.92232 20.0033C3.17999 20.712 2.73319 21.6811 2.67333 22.7124L2.66667 22.95V24.3H21.3333V22.95C21.3334 21.917 20.9436 20.923 20.2436 20.1713C19.5437 19.4197 18.5865 18.9674 17.568 18.9067L17.3333 18.9ZM12 0C13.7681 0 15.4638 0.711159 16.714 1.97703C17.9643 3.2429 18.6667 4.95979 18.6667 6.75C18.6667 8.54021 17.9643 10.2571 16.714 11.523C15.4638 12.7888 13.7681 13.5 12 13.5C10.2319 13.5 8.5362 12.7888 7.28595 11.523C6.03571 10.2571 5.33333 8.54021 5.33333 6.75C5.33333 4.95979 6.03571 3.2429 7.28595 1.97703C8.5362 0.711159 10.2319 0 12 0ZM12 2.7C11.4747 2.7 10.9546 2.80476 10.4693 3.00829C9.98396 3.21182 9.54301 3.51014 9.17157 3.88622C8.80014 4.2623 8.5055 4.70876 8.30448 5.20013C8.10346 5.6915 8 6.21815 8 6.75C8 7.28185 8.10346 7.8085 8.30448 8.29987C8.5055 8.79124 8.80014 9.23771 9.17157 9.61378C9.54301 9.98986 9.98396 10.2882 10.4693 10.4917C10.9546 10.6952 11.4747 10.8 12 10.8C13.0609 10.8 14.0783 10.3733 14.8284 9.61378C15.5786 8.85426 16 7.82413 16 6.75C16 5.67587 15.5786 4.64574 14.8284 3.88622C14.0783 3.1267 13.0609 2.7 12 2.7Z" fill="white"/>
</svg>
