<svg width="22" height="22" viewBox="0 0 22 22" fill="none" xmlns="http://www.w3.org/2000/svg">
<path d="M21.6572 0.135045C21.9273 0.331473 22.0378 0.593378 21.9887 0.920759L18.8459 19.7779C18.8049 20.0153 18.674 20.1994 18.453 20.3304C18.3384 20.3958 18.2116 20.4286 18.0724 20.4286C17.9824 20.4286 17.8842 20.4081 17.7778 20.3672L12.2165 18.096L9.24561 21.7176C9.09829 21.9059 8.89777 22 8.64406 22C8.53766 22 8.44763 21.9836 8.37397 21.9509C8.21847 21.8936 8.09366 21.7974 7.99954 21.6624C7.90542 21.5273 7.85836 21.378 7.85836 21.2143V16.9297L18.4653 3.92857L5.34166 15.2846L0.492426 13.2958C0.189605 13.1812 0.0259172 12.9561 0.00136406 12.6205C-0.0150047 12.2932 0.115945 12.0517 0.394214 11.8962L20.8224 0.110491C20.9452 0.0368304 21.0761 0 21.2152 0C21.3789 0 21.5263 0.0450149 21.6572 0.135045Z" fill="#488466"/>
</svg>
