<svg width="20" height="15" viewBox="0 0 20 15" fill="none" xmlns="http://www.w3.org/2000/svg">
<path fill-rule="evenodd" clip-rule="evenodd" d="M11.17 2.00245C11.3766 1.41692 11.7597 0.909884 12.2666 0.55124C12.7735 0.192596 13.3791 0 14 0C14.6209 0 15.2265 0.192596 15.7334 0.55124C16.2403 0.909884 16.6234 1.41692 16.83 2.00245H19C19.2652 2.00245 19.5196 2.10781 19.7071 2.29534C19.8946 2.48288 20 2.73723 20 3.00245C20 3.26767 19.8946 3.52202 19.7071 3.70956C19.5196 3.89709 19.2652 4.00245 19 4.00245H16.83C16.6234 4.58798 16.2403 5.09502 15.7334 5.45366C15.2265 5.81231 14.6209 6.0049 14 6.0049C13.3791 6.0049 12.7735 5.81231 12.2666 5.45366C11.7597 5.09502 11.3766 4.58798 11.17 4.00245H1C0.734784 4.00245 0.48043 3.89709 0.292893 3.70956C0.105357 3.52202 0 3.26767 0 3.00245C0 2.73723 0.105357 2.48288 0.292893 2.29534C0.48043 2.10781 0.734784 2.00245 1 2.00245H11.17ZM3.17 10.0025C3.3766 9.41692 3.75974 8.90988 4.2666 8.55124C4.77346 8.19259 5.37909 8 6 8C6.62091 8 7.22654 8.19259 7.7334 8.55124C8.24026 8.90988 8.6234 9.41692 8.83 10.0025H19C19.2652 10.0025 19.5196 10.1078 19.7071 10.2953C19.8946 10.4829 20 10.7372 20 11.0025C20 11.2677 19.8946 11.522 19.7071 11.7096C19.5196 11.8971 19.2652 12.0025 19 12.0025H8.83C8.6234 12.588 8.24026 13.095 7.7334 13.4537C7.22654 13.8123 6.62091 14.0049 6 14.0049C5.37909 14.0049 4.77346 13.8123 4.2666 13.4537C3.75974 13.095 3.3766 12.588 3.17 12.0025H1C0.734784 12.0025 0.48043 11.8971 0.292893 11.7096C0.105357 11.522 0 11.2677 0 11.0025C0 10.7372 0.105357 10.4829 0.292893 10.2953C0.48043 10.1078 0.734784 10.0025 1 10.0025H3.17ZM14 4.00245C14.2652 4.00245 14.5196 3.89709 14.7071 3.70956C14.8946 3.52202 15 3.26767 15 3.00245C15 2.73723 14.8946 2.48288 14.7071 2.29534C14.5196 2.10781 14.2652 2.00245 14 2.00245C13.7348 2.00245 13.4804 2.10781 13.2929 2.29534C13.1054 2.48288 13 2.73723 13 3.00245C13 3.26767 13.1054 3.52202 13.2929 3.70956C13.4804 3.89709 13.7348 4.00245 14 4.00245ZM6 12.0025C6.26522 12.0025 6.51957 11.8971 6.70711 11.7096C6.89464 11.522 7 11.2677 7 11.0025C7 10.7372 6.89464 10.4829 6.70711 10.2953C6.51957 10.1078 6.26522 10.0025 6 10.0025C5.73478 10.0025 5.48043 10.1078 5.29289 10.2953C5.10536 10.4829 5 10.7372 5 11.0025C5 11.2677 5.10536 11.522 5.29289 11.7096C5.48043 11.8971 5.73478 12.0025 6 12.0025Z" fill="#F5F5F5"/>
</svg>
