<svg width="20" height="22" viewBox="0 0 20 22" fill="none" xmlns="http://www.w3.org/2000/svg">
<path d="M14.4155 14.49C15.0599 14.1421 15.7976 13.944 16.5832 13.944H16.5859C16.6658 13.944 16.7031 13.8477 16.6445 13.7942C15.8275 13.0573 14.8942 12.4621 13.8828 12.0331C13.8722 12.0277 13.8615 12.0251 13.8509 12.0197C15.5047 10.8127 16.5806 8.85085 16.5806 6.63747C16.5806 2.9708 13.6298 0 9.98938 0C6.34891 0 3.40085 2.9708 3.40085 6.63747C3.40085 8.85085 4.47675 10.8127 6.1332 12.0197C6.12255 12.0251 6.1119 12.0277 6.10124 12.0331C4.91084 12.5389 3.84293 13.2642 2.92416 14.1903C2.01069 15.1066 1.28345 16.1929 0.78302 17.3886C0.290646 18.5594 0.0249174 19.8138 6.65937e-05 21.0847C-0.000644203 21.1132 0.00434121 21.1417 0.0147292 21.1683C0.0251172 21.1949 0.0406975 21.2191 0.0605522 21.2395C0.0804068 21.26 0.104134 21.2762 0.130336 21.2873C0.156537 21.2984 0.184683 21.3041 0.213115 21.3041H1.80832C1.92283 21.3041 2.0187 21.2105 2.02136 21.0954C2.07463 19.0292 2.89753 17.0942 4.35425 15.6275C5.8589 14.11 7.86156 13.2749 9.99204 13.2749C11.502 13.2749 12.9508 13.6951 14.1998 14.482C14.2318 14.5023 14.2687 14.5137 14.3065 14.5151C14.3444 14.5165 14.382 14.5078 14.4155 14.49ZM9.99204 11.2409C8.77234 11.2409 7.62454 10.7618 6.75903 9.89197C6.33319 9.46511 5.99559 8.95779 5.76569 8.39923C5.53579 7.84068 5.41813 7.24192 5.41949 6.63747C5.41949 5.409 5.89619 4.2528 6.75903 3.38297C7.62188 2.51314 8.76968 2.03406 9.99204 2.03406C11.2144 2.03406 12.3595 2.51314 13.2251 3.38297C13.6509 3.80983 13.9885 4.31715 14.2184 4.87571C14.4483 5.43426 14.566 6.03301 14.5646 6.63747C14.5646 7.86594 14.0879 9.02214 13.2251 9.89197C12.3595 10.7618 11.2117 11.2409 9.99204 11.2409ZM19.787 17.6107H17.5499V15.3625C17.5499 15.2448 17.4541 15.1484 17.3369 15.1484H15.8456C15.7284 15.1484 15.6325 15.2448 15.6325 15.3625V17.6107H13.3955C13.2783 17.6107 13.1824 17.7071 13.1824 17.8248V19.3236C13.1824 19.4414 13.2783 19.5377 13.3955 19.5377H15.6325V21.7859C15.6325 21.9037 15.7284 22 15.8456 22H17.3369C17.4541 22 17.5499 21.9037 17.5499 21.7859V19.5377H19.787C19.9041 19.5377 20 19.4414 20 19.3236V17.8248C20 17.7071 19.9041 17.6107 19.787 17.6107Z" fill="#0066FF"/>
</svg>
