<svg width="23" height="24" viewBox="0 0 23 24" fill="none" xmlns="http://www.w3.org/2000/svg">
<path d="M23 17.2586C22.9995 18.8318 22.4619 20.3577 21.4763 21.5837C20.4906 22.8096 19.116 23.6621 17.58 24L16.8463 21.7981C17.5182 21.6874 18.1572 21.429 18.7172 21.0415C19.2772 20.6539 19.7442 20.147 20.0847 19.5571H17.25C16.64 19.5571 16.055 19.3147 15.6237 18.8832C15.1923 18.4517 14.95 17.8665 14.95 17.2563V12.6546C14.95 12.0444 15.1923 11.4591 15.6237 11.0277C16.055 10.5962 16.64 10.3538 17.25 10.3538H20.6287C20.3481 8.12988 19.2659 6.08487 17.5851 4.60245C15.9044 3.12002 13.7407 2.30207 11.5 2.30207C9.25929 2.30207 7.09558 3.12002 5.41486 4.60245C3.73414 6.08487 2.65194 8.12988 2.3713 10.3538H5.75C6.36 10.3538 6.94501 10.5962 7.37635 11.0277C7.80768 11.4591 8.05 12.0444 8.05 12.6546V17.2563C8.05 17.8665 7.80768 18.4517 7.37635 18.8832C6.94501 19.3147 6.36 19.5571 5.75 19.5571H2.3C1.69 19.5571 1.10499 19.3147 0.673654 18.8832C0.242321 18.4517 0 17.8665 0 17.2563V11.5042C0 5.15042 5.14855 0 11.5 0C17.8514 0 23 5.15042 23 11.5042V17.2586Z" fill="#488466"/>
</svg>
