<svg width="46" height="46" viewBox="0 0 46 46" fill="none" xmlns="http://www.w3.org/2000/svg">
<path d="M46 23C46 29.1 43.5768 34.9501 39.2635 39.2635C34.9501 43.5768 29.1 46 23 46C16.9 46 11.0499 43.5768 6.73654 39.2635C2.42321 34.9501 0 29.1 0 23C0 16.9 2.42321 11.0499 6.73654 6.73654C11.0499 2.42321 16.9 0 23 0C29.1 0 34.9501 2.42321 39.2635 6.73654C43.5768 11.0499 46 16.9 46 23ZM15.8125 11.5057V34.5H19.5011V26.3465H24.2966C28.8449 26.3465 31.625 23.23 31.625 18.9347C31.625 14.674 28.8794 11.5057 24.3282 11.5057H15.8125ZM23.7763 23.2128C26.3436 23.2128 27.8559 21.6459 27.8559 18.9347C27.8559 16.2236 26.3436 14.674 23.7734 14.674H19.4867V23.2128H23.7763Z" fill="#FEDA2C"/>
</svg>
