<svg width="118" height="120" viewBox="0 0 118 120" fill="none" xmlns="http://www.w3.org/2000/svg">
<ellipse cx="58.0805" cy="59.0137" rx="58.0805" ry="59.0137" fill="#E1E1E1"/>
<circle cx="101.5" cy="103.5" r="15.5" fill="#488466" stroke="white" stroke-width="2"/>
<path d="M96.6555 106.493L104.544 98.8756L103.444 97.8133L95.5556 105.431V106.493H96.6555ZM97.2998 107.996H94V104.809L102.894 96.22C103.198 95.9267 103.69 95.9267 103.994 96.22L106.194 98.3444C106.497 98.6378 106.497 99.1133 106.194 99.4067L97.2998 107.996ZM94 109.498H108V111H94V109.498Z" fill="white"/>
<path d="M78 73.5C78 80.4028 78 86 58.5 86C39 86 39 80.4028 39 73.5C39 66.5972 47.7311 61 58.5 61C69.2689 61 78 66.5972 78 73.5Z" fill="#797979"/>
<circle cx="58.5" cy="44.5" r="13.5" fill="#797979"/>
</svg>
