<svg width="29" height="29" viewBox="0 0 29 29" fill="none" xmlns="http://www.w3.org/2000/svg">
<path d="M1 27.9998C1 26.0896 1 25.1351 1.594 24.5438C2.18665 23.9498 3.1411 23.9498 5.05 23.9498C6.96025 23.9498 7.9147 23.9498 8.506 24.5438C9.1 25.1365 9.1 26.0909 9.1 27.9998V15.8498C9.1 13.9396 9.1 12.9851 9.694 12.3938C10.2866 11.7998 11.2411 11.7998 13.15 11.7998H15.85C17.7603 11.7998 18.7147 11.7998 19.306 12.3938C19.9 12.9865 19.9 13.9409 19.9 15.8498V27.9998V23.9498C19.9 22.0396 19.9 21.0851 20.494 20.4938C21.0867 19.8998 22.0411 19.8998 23.95 19.8998C25.8603 19.8998 26.8147 19.8998 27.406 20.4938C28 21.0865 28 22.0409 28 23.9498V27.9998" stroke="white" stroke-width="2" stroke-linecap="round"/>
<path d="M13.3474 2.38105C13.8604 1.459 14.1169 1 14.5003 1C14.8837 1 15.1402 1.459 15.6532 2.38105L15.7855 2.61865C15.9313 2.88055 16.0042 3.01015 16.1176 3.09655C16.2324 3.18295 16.3741 3.21535 16.6576 3.2788L16.9141 3.3382C17.9104 3.56365 18.4086 3.6757 18.5274 4.0564C18.6462 4.43845 18.306 4.83535 17.6269 5.62915L17.4514 5.83435C17.2584 6.0598 17.1612 6.17185 17.118 6.31225C17.0748 6.45265 17.0896 6.6025 17.118 6.90355L17.145 7.1776C17.2476 8.23735 17.2989 8.7679 16.9897 9.0028C16.6792 9.23905 16.2121 9.02305 15.2793 8.59375L15.039 8.48305C14.773 8.36155 14.6407 8.29945 14.5003 8.29945C14.3599 8.29945 14.2276 8.36155 13.9617 8.48305L13.7214 8.59375C12.7885 9.02305 12.3214 9.23905 12.0109 9.0028C11.7004 8.7679 11.7531 8.23735 11.8557 7.1776L11.8827 6.90355C11.911 6.6025 11.9259 6.45265 11.8827 6.31225C11.8395 6.1732 11.7423 6.0598 11.5492 5.83435L11.3737 5.62915C10.6947 4.83535 10.3545 4.43845 10.4733 4.0564C10.5921 3.6757 11.0902 3.56365 12.0865 3.3382L12.343 3.2788C12.6265 3.21535 12.7683 3.1843 12.883 3.09655C12.9964 3.01015 13.0693 2.88055 13.2151 2.61865L13.3474 2.38105Z" stroke="white" stroke-width="2"/>
</svg>
