<svg width="262" height="173" viewBox="0 0 262 173" fill="none" xmlns="http://www.w3.org/2000/svg">
<path fill-rule="evenodd" clip-rule="evenodd" d="M0.645606 118.893C2.47546 123.422 7.63344 125.606 12.1595 123.769L112.317 83.1127L108.444 82.2024L110.621 78.9147L106.771 78.0618L108.956 74.7936L105.098 73.9213L107.291 70.6724L103.593 70.1948L105.698 66.7304L5.51397 107.397C0.998323 109.23 -1.18004 114.374 0.645606 118.893Z" fill="#30CA8F"/>
<path fill-rule="evenodd" clip-rule="evenodd" d="M36.0304 107.246L43.0189 124.543C43.8646 126.636 42.4958 129.163 39.9616 130.187C37.4273 131.211 34.6873 130.344 33.8415 128.251L26.853 110.954C26.0073 108.86 27.3761 106.333 29.9104 105.309C32.4447 104.285 35.1847 105.152 36.0304 107.246Z" fill="#30CA8F"/>
<path fill-rule="evenodd" clip-rule="evenodd" d="M48.9639 97.2097L55.9524 114.507C56.7981 116.6 55.4293 119.127 52.895 120.151C50.3607 121.175 47.6207 120.308 46.775 118.215L39.7865 100.918C38.9408 98.8243 40.3096 96.2973 42.8439 95.2734C45.3781 94.2495 48.1182 95.1164 48.9639 97.2097Z" fill="#30CA8F"/>
<path fill-rule="evenodd" clip-rule="evenodd" d="M65.6537 100.086L72.6422 117.383C73.4879 119.476 72.1191 122.003 69.5848 123.027C67.0505 124.051 64.3105 123.184 63.4648 121.091L56.4763 103.794C55.6306 101.701 56.9994 99.1736 59.5337 98.1497C62.0679 97.1258 64.808 97.9927 65.6537 100.086Z" fill="#30CA8F"/>
<path fill-rule="evenodd" clip-rule="evenodd" d="M204.704 111.08C203.455 115.501 199.026 118.227 194.516 117.35L119.098 102.69L116.438 99.6414L119.962 98.2458L117.29 95.2577L120.81 93.8827L118.142 90.874L121.658 89.5195L118.909 86.9287L122.469 85.3461L197.888 100.006C202.962 100.992 206.109 106.105 204.704 111.08Z" fill="#30CA8F"/>
<path fill-rule="evenodd" clip-rule="evenodd" d="M212.873 151.142C235.314 155.504 256.977 141.18 261.259 119.148C265.542 97.1165 250.822 75.7203 228.382 71.3584C205.941 66.9964 184.278 81.3205 179.996 103.352C175.713 125.384 190.433 146.78 212.873 151.142Z" fill="#30CA8F"/>
<path fill-rule="evenodd" clip-rule="evenodd" d="M218.267 123.391C225.097 124.719 231.69 120.36 232.994 113.654C234.297 106.949 229.817 100.437 222.987 99.1095C216.158 97.782 209.565 102.141 208.261 108.847C206.958 115.552 211.438 122.064 218.267 123.391Z" fill="white" stroke="#588B71" stroke-width="11.6361"/>
<path d="M86.5061 38.937L66.1139 20.6453" stroke="#20B866" stroke-width="3.3915" stroke-linecap="square"/>
<path d="M111.069 34.9306V1.70045" stroke="#20B866" stroke-width="3.3915" stroke-linecap="square"/>
<path d="M136.096 39.3421L154.958 20.4375" stroke="#20B866" stroke-width="3.3915" stroke-linecap="square"/>
<path d="M87.6685 133.331L67.4328 151.527" stroke="#20B866" stroke-width="3.3915" stroke-linecap="square"/>
<path d="M112.59 137.571V170.801" stroke="#20B866" stroke-width="3.3915" stroke-linecap="square"/>
<path d="M137.05 133.125L155.562 151.733" stroke="#20B866" stroke-width="3.3915" stroke-linecap="square"/>
</svg>
