<svg width="26" height="27" viewBox="0 0 26 27" fill="none" xmlns="http://www.w3.org/2000/svg">
<path d="M24.2645 2.56051C24.9412 2.56051 25.4899 1.98732 25.4899 1.28026C25.4899 0.57319 24.9412 0 24.2645 0C23.5877 0 23.0391 0.57319 23.0391 1.28026C23.0391 1.98732 23.5877 2.56051 24.2645 2.56051Z" fill="#F44336"/>
<path d="M16.2446 16.7358C16.2446 16.7358 18.2927 19.6159 18.2927 20.7521C18.2927 21.8884 17.4097 22.8109 16.3222 22.8109C15.394 22.8109 3.78848 22.7861 2.50711 22.7861C1.22575 22.7861 0.5 23.5714 0.5 23.5714" stroke="#84B0C1" stroke-miterlimit="10" stroke-linecap="round"/>
<path d="M11.666 16.4541C11.666 16.4541 13.9488 19.6154 13.9488 20.7539C13.9488 21.8924 12.9495 22.8059 11.862 22.8059" stroke="#84B0C1" stroke-miterlimit="10" stroke-linecap="round"/>
<path d="M16.8216 18.6144C16.3887 17.8403 16.0377 17.3903 15.4735 16.5848C15.4735 16.5848 15.6221 16.6186 16.0226 16.6186C16.4232 16.6186 16.7118 16.4858 16.7118 16.4858C17.2803 17.3251 17.4504 17.5388 17.7541 18.1013C17.7541 18.1013 17.7433 18.4681 17.4634 18.6616C17.1834 18.8551 16.8216 18.6144 16.8216 18.6144ZM12.4693 18.6526C11.8684 17.6941 11.3882 16.9628 11.3882 16.9628L12.6803 16.9943C12.6803 16.9943 13.2596 17.8066 13.5913 18.4501C13.5913 18.4501 13.6408 18.7426 13.2704 18.8956C12.9 19.0441 12.4693 18.6526 12.4693 18.6526Z" fill="#2F7889"/>
<path d="M16.2492 16.7943L1.18722 15.7458C1.13768 15.7413 1.10107 15.7008 1.10107 15.649V6.86272C1.10107 6.77947 1.16353 6.70972 1.24321 6.70522L20.3301 5.43622C20.5154 5.42271 20.6489 5.61622 20.5821 5.79622L16.5291 16.6098C16.4839 16.729 16.3719 16.8033 16.2492 16.7943Z" stroke="#84B0C1" stroke-miterlimit="10"/>
<path d="M4.09439 6.5389L3.69814 15.8629M7.51208 6.2959L6.27379 16.0632M10.9319 6.0529L8.84944 16.2634M14.3518 5.8099L11.4251 16.4637M17.7695 5.56689L14.0007 16.6639M0.782227 10.0084L19.208 9.34691M0.952357 13.0752H18.0516" stroke="#84B0C1" stroke-width="0.5" stroke-miterlimit="10"/>
<path d="M16.3137 26.9999C17.2105 26.9999 17.9375 26.2404 17.9375 25.3034C17.9375 24.3665 17.2105 23.6069 16.3137 23.6069C15.4169 23.6069 14.6899 24.3665 14.6899 25.3034C14.6899 26.2404 15.4169 26.9999 16.3137 26.9999Z" fill="#424242"/>
<path d="M15.2666 22.9683H17.362L16.8624 25.2385C16.815 25.5918 16.5846 25.8483 16.3154 25.8483C16.0462 25.8483 15.8136 25.5918 15.7684 25.2385L15.2666 22.9683Z" fill="#84B0C1"/>
<path d="M16.6498 25.3194C16.611 25.4679 16.5399 25.6367 16.3957 25.6749C15.8745 25.8144 15.8013 24.4757 16.064 24.2462C16.2234 24.1067 16.555 24.0819 16.695 24.2552C16.8737 24.4757 16.7165 25.0742 16.6498 25.3194Z" fill="#A8E3F0"/>
<path d="M16.3395 23.7715C15.9927 23.7715 15.7472 23.5578 15.6266 23.425C15.6184 23.4162 15.6129 23.4051 15.6106 23.3931C15.6083 23.3811 15.6093 23.3686 15.6137 23.3572C15.618 23.3458 15.6254 23.3359 15.6349 23.3288C15.6445 23.3217 15.6558 23.3176 15.6675 23.317C15.8915 23.3058 16.1155 23.308 16.3373 23.3013C16.5613 23.308 16.7852 23.3058 17.0071 23.317C17.0587 23.3193 17.0846 23.3868 17.048 23.425C16.9338 23.5578 16.6862 23.7715 16.3395 23.7715Z" fill="#2F7889"/>
<path d="M15.8031 25.8798C15.9431 26.0485 16.1671 26.1273 16.3803 26.1003C16.5913 26.0733 16.7851 25.9428 16.9122 25.7628C16.9854 25.657 17.0371 25.5355 17.1211 25.4388C17.2051 25.342 17.3386 25.2745 17.4549 25.324C17.6186 25.3915 17.6401 25.63 17.5841 25.8033C17.5298 25.9764 17.443 26.1364 17.3287 26.2739C17.2144 26.4115 17.075 26.5238 16.9187 26.6043C16.7055 26.7145 16.4083 26.7595 16.1714 26.7348C15.717 26.6853 15.2281 26.2555 15.0688 25.8145C14.9826 25.5783 14.9072 25.1035 15.3573 25.2115C15.5662 25.2633 15.6351 25.6773 15.8031 25.8798Z" fill="#757575"/>
<path d="M20.4937 6.0101L21.4864 3.47434C21.8913 2.43933 22.1907 2.20758 22.7915 1.92633L24.1978 1.33008" stroke="#84B0C1" stroke-miterlimit="10" stroke-linecap="round"/>
<path d="M3.21802 26.9999C4.11481 26.9999 4.8418 26.2404 4.8418 25.3034C4.8418 24.3665 4.11481 23.6069 3.21802 23.6069C2.32123 23.6069 1.59424 24.3665 1.59424 25.3034C1.59424 26.2404 2.32123 26.9999 3.21802 26.9999Z" fill="#424242"/>
<path d="M2.16895 22.9683H4.26435L3.76473 25.2385C3.71735 25.5918 3.48692 25.8483 3.21773 25.8483C2.94853 25.8483 2.71595 25.5918 2.67072 25.2385L2.16895 22.9683Z" fill="#84B0C1"/>
<path d="M3.55407 25.3194C3.5153 25.4679 3.44424 25.6367 3.29995 25.6749C2.77879 25.8144 2.70557 24.4757 2.9683 24.2462C3.12766 24.1067 3.45931 24.0819 3.59929 24.2552C3.77804 24.4757 3.61867 25.0742 3.55407 25.3194Z" fill="#A8E3F0"/>
<path d="M3.24375 23.7715C2.89703 23.7715 2.65152 23.5578 2.53092 23.425C2.52274 23.4162 2.51716 23.4051 2.51485 23.3931C2.51255 23.3811 2.51363 23.3686 2.51795 23.3572C2.52227 23.3458 2.52966 23.3359 2.53922 23.3288C2.54878 23.3217 2.56011 23.3176 2.57184 23.317C2.79581 23.3058 3.01978 23.308 3.2416 23.3013C3.46557 23.308 3.68954 23.3058 3.91135 23.317C3.96304 23.3193 3.98888 23.3868 3.95227 23.425C3.83598 23.5578 3.58832 23.7715 3.24375 23.7715Z" fill="#2F7889"/>
<path d="M2.70498 25.8798C2.84496 26.0485 3.06893 26.1273 3.28213 26.1003C3.49318 26.0733 3.687 25.9428 3.81406 25.7628C3.88728 25.657 3.93896 25.5355 4.02295 25.4388C4.10694 25.342 4.24046 25.2745 4.35675 25.324C4.52042 25.3915 4.54196 25.63 4.48597 25.8033C4.43167 25.9764 4.34484 26.1364 4.23057 26.2739C4.1163 26.4115 3.97689 26.5238 3.82052 26.6043C3.60732 26.7145 3.31013 26.7595 3.07324 26.7348C2.61884 26.6853 2.12998 26.2555 1.97062 25.8145C1.88447 25.5783 1.8091 25.1035 2.25919 25.2115C2.46809 25.2633 2.537 25.6773 2.70498 25.8798Z" fill="#757575"/>
</svg>
