<svg width="19" height="21" viewBox="0 0 19 21" fill="none" xmlns="http://www.w3.org/2000/svg">
<path d="M16.8889 8.4H17.9444C18.5274 8.4 19 8.87008 19 9.45V19.95C19 20.5299 18.5274 21 17.9444 21H1.05556C0.472593 21 0 20.5299 0 19.95V9.45C0 8.87008 0.472593 8.4 1.05556 8.4H2.11111V7.35C2.11111 3.29071 5.41923 0 9.5 0C13.5808 0 16.8889 3.29071 16.8889 7.35V8.4ZM2.11111 10.5V18.9H16.8889V10.5H2.11111ZM8.44444 12.6H10.5556V16.8H8.44444V12.6ZM14.7778 8.4V7.35C14.7778 4.45051 12.4148 2.1 9.5 2.1C6.58517 2.1 4.22222 4.45051 4.22222 7.35V8.4H14.7778Z" fill="#488466"/>
</svg>
