<svg width="21" height="21" viewBox="0 0 21 21" fill="none" xmlns="http://www.w3.org/2000/svg">
<path d="M9.55308 19.0975C8.29826 19.0988 7.0555 18.8525 5.89606 18.3727C4.73661 17.8928 3.68328 17.1888 2.79645 16.301C0.990047 14.4946 0 12.0977 0 9.5444C0 6.99112 0.990047 4.59417 2.79645 2.78776C6.51347 -0.929255 12.5753 -0.929255 16.3097 2.78776C18.1161 4.59417 19.1062 6.99112 19.1062 9.5444C19.1062 12.0977 18.1161 14.4946 16.3097 16.301C15.4229 17.1888 14.3696 17.8928 13.2101 18.3727C12.0507 18.8525 10.8079 19.0988 9.55308 19.0975ZM9.55308 1.72824C7.55562 1.72824 5.55816 2.49249 4.02966 4.02098C2.55328 5.49737 1.73692 7.46009 1.73692 9.5444C1.73692 11.6287 2.55328 13.5914 4.02966 15.0678C5.49722 16.5277 7.48306 17.3472 9.55308 17.3472C11.6231 17.3472 13.609 16.5277 15.0765 15.0678C16.5529 13.5914 17.3692 11.6287 17.3692 9.5444C17.3692 7.46009 16.5529 5.49737 15.0765 4.02098C14.3524 3.29366 13.4916 2.71668 12.5437 2.3232C11.5958 1.92973 10.5794 1.72753 9.55308 1.72824Z" fill="#488466"/>
<path d="M20.4645 21C20.3956 21.0008 20.3273 20.9872 20.264 20.9601C20.2007 20.933 20.1438 20.8929 20.0969 20.8425L16.5478 17.2933C16.3377 17.0833 16.3377 16.7578 16.5478 16.5478C16.7578 16.3377 17.0833 16.3377 17.2933 16.5478L20.8425 20.0969C21.0525 20.3069 21.0525 20.6324 20.8425 20.8425C20.7375 20.9475 20.601 21 20.475 21H20.4645Z" fill="#488466"/>
</svg>
