<svg width="13" height="12" viewBox="0 0 13 12" fill="none" xmlns="http://www.w3.org/2000/svg">
<path d="M10.0343 10.1276C9.01209 10.7378 7.79988 11.0912 6.50002 11.0912C3.26031 11.0912 0.565073 8.89643 0 6.00001C0.262364 4.65517 0.983944 3.46162 2.00602 2.56878L0.127385 0.800002L0.97707 0L12.8726 11.2L12.023 12L10.0343 10.1276ZM2.85625 3.3693C2.05785 4.05403 1.4757 4.96312 1.22635 6.00001C1.77756 8.29211 3.95514 9.9598 6.50002 9.9598C7.46096 9.9598 8.36958 9.72199 9.15803 9.30259L7.93939 8.15521C7.52261 8.40248 7.02904 8.54559 6.50002 8.54559C5.0068 8.54559 3.79632 7.40585 3.79632 6.00001C3.79632 5.50187 3.94828 5.03716 4.21092 4.64476L2.85625 3.3693ZM7.04892 7.31681L5.10142 5.48321C5.03463 5.64329 4.99796 5.81758 4.99796 6.00001C4.99796 6.78105 5.67047 7.41423 6.50002 7.41423C6.69372 7.41423 6.87889 7.37966 7.04892 7.31681ZM11.7911 8.59781L10.9315 7.78842C11.3255 7.25957 11.616 6.6553 11.7736 6.00001C11.2224 3.70785 9.04483 2.0402 6.50002 2.0402C5.99179 2.0402 5.49822 2.10671 5.02934 2.23142L4.08123 1.33875C4.83033 1.06125 5.64626 0.908834 6.50002 0.908834C9.73968 0.908834 12.4349 3.10355 13 6.00001C12.8124 6.96145 12.3901 7.84562 11.7911 8.59781ZM6.33335 3.45917C6.38845 3.45601 6.44402 3.45441 6.50002 3.45441C7.99317 3.45441 9.20369 4.59411 9.20369 6.00001C9.20369 6.05268 9.20195 6.10501 9.19864 6.15688L6.33335 3.45917Z" fill="black"/>
</svg>
