<svg width="24" height="22" viewBox="0 0 24 22" fill="none" xmlns="http://www.w3.org/2000/svg">
<path d="M20.8802 2.37325H1.22825V0H20.8802V2.37325ZM15.5865 11.8662H13.5107V13.8716C12.7369 14.9989 12.2825 16.3398 12.2825 17.7994C12.2825 18.2028 12.3316 18.5944 12.393 18.986H1.22825V11.8662H0V9.49299L1.22825 3.55987H20.8802L22.1085 9.49299V11.0949C21.3347 10.8339 20.5118 10.6796 19.652 10.6796C18.1412 10.6796 16.7533 11.1187 15.5865 11.8662ZM11.0542 11.8662H3.68475V16.6127H11.0542V11.8662ZM19.6029 9.49299L18.8659 5.93312H3.24258L2.50563 9.49299H19.6029ZM24 15.2837L22.2559 13.6106L19.652 16.1262L17.0481 13.6106L15.3163 15.2837L17.9202 17.7994L15.3163 20.315L17.0481 22L19.652 19.4725L22.2559 22L24 20.315L21.3838 17.7994L24 15.2837Z" fill="#457E61"/>
</svg>
