<svg width="13" height="15" viewBox="0 0 13 15" fill="none" xmlns="http://www.w3.org/2000/svg">
<g opacity="0.3">
<path d="M9.35799 0.631284L12.2028 12.0412C12.315 12.4911 12.0259 12.951 11.5576 13.0678L3.92165 14.9716C3.45331 15.0884 2.98217 14.8181 2.87001 14.3682L0.025183 2.95821C-0.0869844 2.50834 0.202081 2.04845 0.670419 1.93168L8.30635 0.0278263C8.77469 -0.0889432 9.24583 0.181405 9.35799 0.631284Z" fill="#24C387"/>
<path d="M9.35772 0.631842L12.2025 12.0418C12.3165 12.499 12.0333 12.9497 11.5573 13.0683C11.4224 13.102 11.2797 13.0718 11.1739 12.9873L5.40774 7.93255C5.33471 7.87458 5.28643 7.79659 5.26529 7.71183C5.24416 7.62707 5.25018 7.53554 5.28744 7.45007L8.00562 0.279894C8.05936 0.15569 8.17118 0.0620189 8.30608 0.0283843C8.78206 -0.0902892 9.24373 0.174628 9.35772 0.631842Z" fill="#24C387"/>
<path d="M0.025183 2.95821L2.87001 14.3682C2.984 14.8254 3.44567 15.0903 3.92165 14.9716C4.05655 14.938 4.16837 14.8443 4.22211 14.7201L7.26782 7.46482C7.33852 7.29657 7.29076 7.10505 7.14935 6.98968L1.054 2.0135C0.948029 1.92825 0.80532 1.89804 0.670419 1.93168C0.194445 2.05035 -0.0888132 2.501 0.025183 2.95821Z" fill="#28DF99"/>
</g>
</svg>
