<svg width="22" height="22" viewBox="0 0 22 22" fill="none" xmlns="http://www.w3.org/2000/svg">
<path d="M3.58602 12.7622C4.33622 9.1597 7.47232 6.6 11 6.6C14.5266 6.6 17.6627 9.1597 18.414 12.7622C18.4438 12.9052 18.5291 13.0304 18.6512 13.1105C18.7733 13.1905 18.9223 13.2188 19.0652 13.189C19.2082 13.1592 19.3334 13.0739 19.4135 12.9518C19.4935 12.8297 19.5218 12.6808 19.492 12.5378C18.6373 8.4403 15.0623 5.5 11 5.5C6.93772 5.5 3.36272 8.4403 2.50802 12.5378C2.47826 12.6808 2.50651 12.8297 2.58655 12.9518C2.66659 13.0739 2.79186 13.1592 2.93482 13.189C3.07777 13.2188 3.22669 13.1905 3.34881 13.1105C3.47093 13.0304 3.55626 12.9052 3.58602 12.7622ZM10.989 8.8C12.0101 8.8 12.9894 9.20562 13.7114 9.92764C14.4334 10.6497 14.839 11.6289 14.839 12.65C14.839 13.6711 14.4334 14.6503 13.7114 15.3724C12.9894 16.0944 12.0101 16.5 10.989 16.5C9.96793 16.5 8.98867 16.0944 8.26666 15.3724C7.54464 14.6503 7.13902 13.6711 7.13902 12.65C7.13902 11.6289 7.54464 10.6497 8.26666 9.92764C8.98867 9.20562 9.96793 8.8 10.989 8.8Z" fill="black"/>
</svg>
