<svg width="40" height="28" viewBox="0 0 40 28" fill="none" xmlns="http://www.w3.org/2000/svg">
<path d="M39.5 4.504L24.804 0.5C14.866 1.018 7.942 2.714 0.5 9.873L15.714 14.724C20 8.461 29.609 4.034 39.5 4.505V4.504Z" stroke="#084626" stroke-linecap="round" stroke-linejoin="round"/>
<path d="M39.5001 5.79102C29.0281 6.07402 20.9421 13.453 16.1381 20.659L3.18506 15.902C3.89206 13.225 6.03106 11.637 6.03106 11.637" stroke="#084626" stroke-linecap="round" stroke-linejoin="round"/>
<path d="M39.1232 7.23438C32.5762 7.51737 19.4352 19.8584 16.7032 26.5944C16.7032 26.5944 10.4802 23.7144 6.05824 22.2604C6.04224 19.0094 7.46824 17.4744 7.46824 17.4744" stroke="#084626" stroke-linecap="round" stroke-linejoin="round"/>
<path d="M18.8702 5.63459C21.5758 5.63459 23.7692 5.00197 23.7692 4.22159C23.7692 3.44122 21.5758 2.80859 18.8702 2.80859C16.1645 2.80859 13.9712 3.44122 13.9712 4.22159C13.9712 5.00197 16.1645 5.63459 18.8702 5.63459Z" stroke="#084626" stroke-linecap="round" stroke-linejoin="round"/>
</svg>
