<svg width="148" height="138" viewBox="0 0 148 138" fill="none" xmlns="http://www.w3.org/2000/svg">
<path d="M16.1477 49.4687C16.1477 49.4687 16.1477 46.3879 16.1477 39.5036C16.1477 32.6193 18.182 3.22558 47.0446 3.22558C75.9073 3.22558 77.9415 32.6193 77.9415 39.5036C77.9415 46.3879 77.9415 49.4687 77.9415 49.4687" stroke="#455A64" stroke-width="6.4512"/>
<path fill-rule="evenodd" clip-rule="evenodd" d="M0 48.8699H19.1828V137.225H0V48.8699Z" fill="#315945" fill-opacity="0.9"/>
<path fill-rule="evenodd" clip-rule="evenodd" d="M19.1828 48.8699H93.0721V137.225H19.1828V48.8699Z" fill="#457E61" fill-opacity="0.9"/>
<path fill-rule="evenodd" clip-rule="evenodd" d="M51.8646 96.3277C56.1808 96.3277 59.6798 92.9562 59.6798 88.7974C59.6798 84.6385 56.1808 81.2671 51.8646 81.2671C47.5484 81.2671 44.0494 84.6385 44.0494 88.7974C44.0494 92.9562 47.5484 96.3277 51.8646 96.3277Z" fill="#20B866"/>
<path fill-rule="evenodd" clip-rule="evenodd" d="M49.2595 94.3195H54.4697V103.356H49.2595V94.3195Z" fill="#20B866"/>
<path fill-rule="evenodd" clip-rule="evenodd" d="M48.3161 89.086C48.3161 87.067 49.9528 85.4304 51.9717 85.4304H127.028C129.047 85.4304 130.684 87.067 130.684 89.086C130.684 91.1049 129.047 92.7415 127.028 92.7415H51.9717C49.9528 92.7415 48.3161 91.1049 48.3161 89.086Z" fill="#30CA8F"/>
<path fill-rule="evenodd" clip-rule="evenodd" d="M58.9718 90.2481V97.9675C58.9718 98.9017 58.0823 99.6591 56.9849 99.6591C55.8875 99.6591 54.998 98.9017 54.998 97.9675V90.2481C54.998 89.3139 55.8875 88.5566 56.9849 88.5566C58.0823 88.5566 58.9718 89.3139 58.9718 90.2481Z" fill="#30CA8F"/>
<path fill-rule="evenodd" clip-rule="evenodd" d="M65.2955 88.4029V96.1223C65.2955 97.0565 64.4059 97.8138 63.3086 97.8138C62.2112 97.8138 61.3216 97.0565 61.3216 96.1223V88.4029C61.3216 87.4687 62.2112 86.7114 63.3086 86.7114C64.4059 86.7114 65.2955 87.4687 65.2955 88.4029Z" fill="#30CA8F"/>
<path fill-rule="evenodd" clip-rule="evenodd" d="M71.0757 92.0933V99.8128C71.0757 100.747 70.1861 101.504 69.0887 101.504C67.9914 101.504 67.1018 100.747 67.1018 99.8128V92.0933C67.1018 91.1591 67.9914 90.4018 69.0887 90.4018C70.1861 90.4018 71.0757 91.1591 71.0757 92.0933Z" fill="#30CA8F"/>
<path fill-rule="evenodd" clip-rule="evenodd" d="M131.382 105.171C140.56 105.171 148 97.642 148 88.355C148 79.0679 140.56 71.5393 131.382 71.5393C122.204 71.5393 114.764 79.0679 114.764 88.355C114.764 97.642 122.204 105.171 131.382 105.171Z" fill="#30CA8F"/>
<path fill-rule="evenodd" clip-rule="evenodd" d="M131.382 93.4729C134.175 93.4729 136.44 91.1816 136.44 88.3551C136.44 85.5286 134.175 83.2373 131.382 83.2373C128.589 83.2373 126.324 85.5286 126.324 88.3551C126.324 91.1816 128.589 93.4729 131.382 93.4729Z" fill="white" stroke="#588B71" stroke-width="3.29043"/>
</svg>
