<svg width="18" height="23" viewBox="0 0 18 23" fill="none" xmlns="http://www.w3.org/2000/svg">
<path d="M0 23C0 18.1609 4.02943 14.2381 9 14.2381C13.9706 14.2381 18 18.1609 18 23H15.75C15.75 19.3707 12.7279 16.4286 9 16.4286C5.27208 16.4286 2.25 19.3707 2.25 23H0ZM9 13.1429C5.27063 13.1429 2.25 10.2021 2.25 6.57143C2.25 2.94071 5.27063 0 9 0C12.7294 0 15.75 2.94071 15.75 6.57143C15.75 10.2021 12.7294 13.1429 9 13.1429ZM9 10.9524C11.4862 10.9524 13.5 8.99191 13.5 6.57143C13.5 4.15095 11.4862 2.19048 9 2.19048C6.51375 2.19048 4.5 4.15095 4.5 6.57143C4.5 8.99191 6.51375 10.9524 9 10.9524Z" fill="#488466"/>
</svg>
