<svg width="29" height="29" viewBox="0 0 29 29" fill="none" xmlns="http://www.w3.org/2000/svg">
<path d="M28.5322 12.878L12.878 28.5323C12.2608 29.1495 11.2544 29.145 10.6316 28.5222L0.477617 18.3682C-0.145162 17.7454 -0.14967 16.739 0.467554 16.1218L16.1218 0.467557C16.739 -0.149667 17.7454 -0.145158 18.3682 0.477621L28.5222 10.6316C29.145 11.2544 29.1495 12.2608 28.5322 12.878Z" fill="#28DF99"/>
<path d="M28.5324 12.8778L12.8782 28.532C12.2509 29.1593 11.2647 29.1549 10.6318 28.522C10.4524 28.3426 10.3681 28.0884 10.4052 27.8392L13.1503 13.8119C13.1754 13.6401 13.2555 13.4877 13.3718 13.3715C13.4881 13.2552 13.6405 13.175 13.8122 13.1499L27.8396 10.4048C28.0887 10.3678 28.343 10.452 28.5223 10.6314C29.1553 11.2643 29.1597 12.2505 28.5324 12.8778Z" fill="#24C387" fill-opacity="0.98"/>
<path d="M16.1218 0.467557L0.467554 16.1218C-0.159734 16.7491 -0.155316 17.7353 0.477617 18.3682C0.657004 18.5476 0.911218 18.6318 1.16039 18.5948L15.6288 16.2818C15.9644 16.2283 16.2272 15.9655 16.2807 15.6299L18.5936 1.16152C18.6318 0.911221 18.5476 0.657008 18.3682 0.477621C17.7352 -0.155312 16.7491 -0.15973 16.1218 0.467557Z" fill="#2D906A" fill-opacity="0.7"/>
</svg>
