<svg width="20" height="20" viewBox="0 0 20 20" fill="none" xmlns="http://www.w3.org/2000/svg">
<path d="M18.7604 9.99969L19.8657 8.08945C19.9985 7.85963 20.0346 7.58645 19.9661 7.32999C19.8976 7.07353 19.73 6.85479 19.5002 6.72185L17.588 5.61655V3.41397C17.588 3.14845 17.4825 2.89379 17.2948 2.70604C17.107 2.51828 16.8524 2.4128 16.5868 2.4128H14.3852L13.281 0.50156C13.1476 0.272208 12.9293 0.1046 12.6732 0.0350135C12.5463 0.000589081 12.4137 -0.00828742 12.2833 0.00889851C12.1528 0.0260844 12.0271 0.0689911 11.9134 0.135131L10.0011 1.24043L8.08887 0.13413C7.85892 0.00137178 7.58565 -0.034605 7.32918 0.0341134C7.07271 0.102832 6.85403 0.270617 6.72127 0.500559L5.61597 2.4128H3.41439C3.14886 2.4128 2.89421 2.51828 2.70646 2.70604C2.5187 2.89379 2.41322 3.14845 2.41322 3.41397V5.61555L0.500978 6.72085C0.386876 6.78648 0.286867 6.87401 0.206697 6.97841C0.126527 7.08281 0.0677761 7.20203 0.0338192 7.3292C-0.000137751 7.45638 -0.00863113 7.58901 0.008827 7.71948C0.0262851 7.84995 0.0693506 7.97568 0.135549 8.08945L1.24084 9.99969L0.135549 11.9099C0.00338322 12.14 -0.0324756 12.4129 0.0357908 12.6693C0.104057 12.9257 0.270912 13.1447 0.499976 13.2785L2.41222 14.3838V16.5854C2.41222 16.8509 2.5177 17.1056 2.70545 17.2933C2.89321 17.4811 3.14786 17.5866 3.41339 17.5866H5.61597L6.72127 19.4988C6.8099 19.6503 6.93646 19.7762 7.08848 19.8639C7.2405 19.9517 7.41275 19.9984 7.58828 19.9994C7.76249 19.9994 7.93569 19.9534 8.08987 19.8643L10.0001 18.759L11.9124 19.8643C12.1422 19.9968 12.4153 20.0328 12.6717 19.9643C12.9281 19.8958 13.1468 19.7284 13.28 19.4988L14.3842 17.5866H16.5858C16.8514 17.5866 17.106 17.4811 17.2938 17.2933C17.4815 17.1056 17.587 16.8509 17.587 16.5854V14.3838L19.4992 13.2785C19.6131 13.2127 19.713 13.1251 19.793 13.0207C19.873 12.9162 19.9317 12.7971 19.9656 12.67C19.9995 12.5429 20.0081 12.4103 19.9908 12.2799C19.9735 12.1495 19.9306 12.0238 19.8647 11.9099L18.7604 9.99969ZM7.49718 4.98381C7.8956 4.98395 8.27765 5.14235 8.55929 5.42417C8.84092 5.70599 8.99907 6.08815 8.99894 6.48657C8.9988 6.885 8.8404 7.26705 8.55858 7.54869C8.27676 7.83032 7.8946 7.98847 7.49618 7.98833C7.09775 7.9882 6.7157 7.8298 6.43406 7.54798C6.15243 7.26616 5.99428 6.884 5.99442 6.48557C5.99455 6.08715 6.15295 5.7051 6.43477 5.42346C6.71659 5.14183 7.09875 4.98368 7.49718 4.98381ZM7.79753 14.5951L6.19565 13.3947L12.2027 5.38528L13.8046 6.58569L7.79753 14.5951ZM12.503 14.9955C12.3058 14.9955 12.1104 14.9566 11.9282 14.881C11.746 14.8054 11.5804 14.6947 11.4409 14.5552C11.3015 14.4156 11.1909 14.25 11.1154 14.0677C11.04 13.8854 11.0012 13.6901 11.0013 13.4928C11.0013 13.2955 11.0403 13.1002 11.1158 12.9179C11.1914 12.7357 11.3021 12.5701 11.4416 12.4307C11.5812 12.2912 11.7468 12.1806 11.9291 12.1052C12.1114 12.0298 12.3068 11.991 12.504 11.991C12.9025 11.9912 13.2845 12.1496 13.5662 12.4314C13.8478 12.7132 14.0059 13.0954 14.0058 13.4938C14.0057 13.8922 13.8473 14.2743 13.5654 14.5559C13.2836 14.8375 12.9015 14.9957 12.503 14.9955Z" fill="#488466"/>
</svg>
