<svg width="19" height="19" viewBox="0 0 19 19" fill="none" xmlns="http://www.w3.org/2000/svg">
<path d="M9.32563 18.6428C8.10068 18.6441 6.88751 18.4037 5.75568 17.9352C4.62384 17.4668 3.59559 16.7795 2.72987 15.9129C0.966474 14.1495 0 11.8096 0 9.31715C0 6.82467 0.966474 4.48478 2.72987 2.72139C6.35838 -0.90713 12.2759 -0.90713 15.9214 2.72139C17.6848 4.48478 18.6513 6.82467 18.6513 9.31715C18.6513 11.8096 17.6848 14.1495 15.9214 15.9129C15.0557 16.7795 14.0274 17.4668 12.8956 17.9352C11.7637 18.4037 10.5506 18.6441 9.32563 18.6428ZM9.32563 1.68709C7.37572 1.68709 5.42582 2.43314 3.93372 3.92524C2.49249 5.36648 1.69557 7.28247 1.69557 9.31715C1.69557 11.3518 2.49249 13.2678 3.93372 14.7091C5.36633 16.1342 7.30489 16.9342 9.32563 16.9342C11.3464 16.9342 13.2849 16.1342 14.7175 14.7091C16.1588 13.2678 16.9557 11.3518 16.9557 9.31715C16.9557 7.28247 16.1588 5.36648 14.7175 3.92524C14.0106 3.21524 13.1704 2.65199 12.245 2.26789C11.3197 1.88378 10.3275 1.6864 9.32563 1.68709Z" fill="#333333"/>
<path d="M18.6515 19C18.6067 19.0005 18.5622 18.9917 18.521 18.974C18.4799 18.9564 18.4428 18.9303 18.4123 18.8975L16.1025 16.5877C15.9658 16.451 15.9658 16.2392 16.1025 16.1025C16.2392 15.9658 16.451 15.9658 16.5877 16.1025L18.8975 18.4123C19.0342 18.549 19.0342 18.7608 18.8975 18.8975C18.8292 18.9658 18.7403 19 18.6583 19H18.6515Z" fill="#333333"/>
</svg>
