<svg width="23" height="23" viewBox="0 0 23 23" fill="none" xmlns="http://www.w3.org/2000/svg">
<path d="M11.5 23C8.45001 23 5.52494 21.7884 3.36827 19.6317C1.2116 17.4751 0 14.55 0 11.5C0 8.45001 1.2116 5.52494 3.36827 3.36827C5.52494 1.2116 8.45001 0 11.5 0C14.55 0 17.4751 1.2116 19.6317 3.36827C21.7884 5.52494 23 8.45001 23 11.5C23 14.55 21.7884 17.4751 19.6317 19.6317C17.4751 21.7884 14.55 23 11.5 23ZM20.4125 13.8C20.8015 12.2913 20.8015 10.7087 20.4125 9.2H16.0195C16.1261 10.7315 16.1261 12.2685 16.0195 13.8H20.4125ZM19.4695 16.1H15.7665C15.5739 17.4862 15.2068 18.8424 14.674 20.1365C16.6942 19.3913 18.3905 17.9635 19.4695 16.1ZM9.292 13.8H13.708C13.8328 12.2692 13.8328 10.7308 13.708 9.2H9.292C9.16718 10.7308 9.16718 12.2692 9.292 13.8ZM9.5795 16.1C10.051 18.86 10.879 20.7 11.5 20.7C12.121 20.7 12.949 18.86 13.4205 16.1H9.5795ZM2.5875 13.8H6.9805C6.87393 12.2685 6.87393 10.7315 6.9805 9.2H2.5875C2.19848 10.7087 2.19848 12.2913 2.5875 13.8ZM3.5305 16.1C4.6095 17.9635 6.30577 19.3913 8.326 20.1365C7.843 19.0325 7.475 17.6525 7.2335 16.1H3.5305ZM19.4695 6.9C18.3905 5.03654 16.6942 3.60874 14.674 2.8635C15.157 3.9675 15.525 5.3475 15.7665 6.9H19.4695ZM9.5795 6.9H13.4205C12.949 4.14 12.121 2.3 11.5 2.3C10.879 2.3 10.051 4.14 9.5795 6.9ZM3.5305 6.9H7.2335C7.4635 5.3475 7.843 3.9675 8.326 2.8635C6.30577 3.60874 4.6095 5.03654 3.5305 6.9Z" fill="#488466"/>
</svg>
