<svg width="23" height="25" viewBox="0 0 23 25" fill="none" xmlns="http://www.w3.org/2000/svg">
<path d="M14.6944 20C13.8 20 13.044 19.6979 12.4264 19.0937C11.8088 18.4896 11.5 17.75 11.5 16.875C11.5 16 11.8088 15.2604 12.4264 14.6562C13.044 14.0521 13.8 13.75 14.6944 13.75C15.5889 13.75 16.3449 14.0521 16.9625 14.6562C17.5801 15.2604 17.8889 16 17.8889 16.875C17.8889 17.75 17.5801 18.4896 16.9625 19.0937C16.3449 19.6979 15.5889 20 14.6944 20ZM2.55556 25C1.85278 25 1.25095 24.755 0.750057 24.265C0.249169 23.775 -0.000849682 23.1867 2.1694e-06 22.5V5C2.1694e-06 4.3125 0.250447 3.72375 0.751335 3.23375C1.25222 2.74375 1.85363 2.49917 2.55556 2.5H3.83333V0H6.38889V2.5H16.6111V0H19.1667V2.5H20.4444C21.1472 2.5 21.7491 2.745 22.2499 3.235C22.7508 3.725 23.0009 4.31333 23 5V22.5C23 23.1875 22.7496 23.7762 22.2487 24.2662C21.7478 24.7562 21.1464 25.0008 20.4444 25H2.55556ZM2.55556 22.5H20.4444V10H2.55556V22.5ZM2.55556 7.5H20.4444V5H2.55556V7.5Z" fill="white"/>
</svg>
