<svg width="22" height="20" viewBox="0 0 22 20" fill="none" xmlns="http://www.w3.org/2000/svg">
<path d="M14 0C16.2091 0 18 1.88512 18 4.21053C18 4.97793 17.8049 5.69739 17.4642 6.31697L22 6.3158V8.42103H20V18.9474C20 19.5287 19.5523 20 19 20H3C2.44772 20 2 19.5287 2 18.9474V8.42103H0V6.3158L4.53577 6.31697C4.19504 5.69739 4 4.97793 4 4.21053C4 1.88512 5.79085 0 7.99999 0C9.19521 0 10.268 0.551801 11.0009 1.42659C11.732 0.551801 12.8048 0 14 0ZM10 8.42103H4V17.8947H10V8.42103ZM18 8.42103H12V17.8947H18V8.42103ZM7.99999 2.10527C6.89542 2.10527 5.99999 3.04783 5.99999 4.21053C5.99999 5.32039 6.81587 6.22965 7.85073 6.31002L7.99999 6.3158H10V4.21053C10 3.15617 9.26371 2.28284 8.30277 2.12924L8.14926 2.11105L7.99999 2.10527ZM14 2.10527C12.9456 2.10527 12.0818 2.96409 12.0055 4.05342L12 4.21053V6.3158H14C15.0543 6.3158 15.9181 5.45698 15.9945 4.36765L16 4.21053C16 3.04783 15.1046 2.10527 14 2.10527Z" fill="#488466"/>
</svg>
