<svg width="17" height="23" viewBox="0 0 17 23" fill="none" xmlns="http://www.w3.org/2000/svg">
<path d="M14.3808 3.78027C14.3808 3.78027 12.7905 3.7783 12.6085 5.0939L11.7542 11.4412C11.5097 12.8751 13.1559 13.1741 14.1462 13.1945C15.1365 13.2149 15.9606 12.4631 15.9868 11.5148L16.0552 9.51319L16.1557 6.56393L16.1853 5.61173C16.1853 4.8179 15.8429 3.97019 14.3808 3.78027Z" fill="#F7DECE"/>
<path d="M15.5389 6.20274L15.4344 6.19814C15.2842 6.19261 15.138 6.24662 15.0275 6.3484C14.9169 6.45018 14.8511 6.5915 14.8443 6.7416L14.7963 8.3884L15.9568 8.60394L16.0436 6.56483C16.0035 6.46211 15.9345 6.37323 15.8449 6.30896C15.7553 6.24469 15.649 6.20779 15.5389 6.20274Z" fill="#E0AA94"/>
<path d="M14.9499 13.7382H12.5881L12.2595 12.6499H15.2784L14.9499 13.7382ZM9.14993 4.27532C9.14993 4.27532 9.24456 3.77326 10.0351 3.82846L9.81693 4.51912L9.14993 4.27532Z" fill="#F7DECE"/>
<path d="M14.7857 0.897C14.7857 0.401514 14.3842 0 13.8887 0H11.0827C10.5872 0 10.1857 0.401514 10.1857 0.897V10.9316C10.1857 11.4271 11.9015 11.8286 12.397 11.8286H13.8887C14.3842 11.8286 14.7857 11.4271 14.7857 10.9316V0.897Z" fill="#6D6E71"/>
<path d="M14.1286 0.897C14.1286 0.401514 13.7271 0 13.2316 0H10.4256C9.93008 0 9.52856 0.401514 9.52856 0.897V10.9316C9.52856 11.4271 9.93008 11.8286 10.4256 11.8286H13.2316C13.7271 11.8286 14.1286 11.4271 14.1286 10.9316V0.897Z" fill="#231F20"/>
<path d="M10.1857 1.31445H13.4714V9.85731H10.1857V1.31445Z" fill="#88C9F9"/>
<path d="M9.23033 8.63219L9.31641 9.12176L9.6693 9.09219L10.0629 9.06459C10.3849 9.04159 10.6438 8.82145 10.7345 8.53099L9.23033 8.63219ZM9.23033 7.06096L9.24347 7.54068L9.67127 7.53608C9.83487 7.53106 9.99378 7.48024 10.1299 7.3894C10.2661 7.29855 10.374 7.17133 10.4414 7.02219L9.23033 7.06096ZM9.22375 5.31953L9.23098 5.7907L9.37753 5.81108C9.54077 5.82203 9.70382 5.78694 9.84811 5.7098C9.9924 5.63266 10.1121 5.51657 10.1937 5.37473L9.22375 5.31953ZM15.7084 7.13522L15.6138 7.17925C15.4776 7.24254 15.3218 7.24932 15.1805 7.19809C15.0393 7.14687 14.9241 7.04181 14.8601 6.90588L14.3587 5.83408C14.2954 5.69782 14.2886 5.54204 14.3398 5.4008C14.3911 5.25955 14.4961 5.14434 14.632 5.08033L14.7267 5.0363C14.8629 4.97301 15.0187 4.96623 15.16 5.01746C15.3012 5.06869 15.4164 5.17375 15.4804 5.30968L15.9818 6.38148C16.0451 6.51774 16.0519 6.67351 16.0007 6.81476C15.9494 6.956 15.8444 7.07121 15.7084 7.13522Z" fill="#E0AA94"/>
<path d="M14.9999 9.96677L14.8954 9.96217C14.7453 9.95534 14.604 9.8895 14.5022 9.77898C14.4004 9.66846 14.3464 9.5222 14.3519 9.37206L14.4584 6.78554C14.4652 6.63545 14.5311 6.49413 14.6416 6.39235C14.7521 6.29056 14.8984 6.23656 15.0485 6.24209L15.153 6.24669C15.4645 6.25983 15.7089 6.52531 15.6965 6.8368L15.59 9.42331C15.5837 9.57359 15.518 9.71522 15.4074 9.81711C15.2967 9.919 15.1502 9.97282 14.9999 9.96677Z" fill="#F7DECE"/>
<path d="M15.3672 7.1725L15.2726 7.21653C15.1363 7.27982 14.9806 7.2866 14.8393 7.23537C14.6981 7.18414 14.5829 7.07908 14.5188 6.94315L14.0168 5.87135C13.9535 5.73509 13.9467 5.57932 13.9979 5.43807C14.0492 5.29683 14.1542 5.18162 14.2902 5.11761L14.3848 5.07293C14.5211 5.00963 14.6768 5.00285 14.8181 5.05408C14.9593 5.10531 15.0745 5.21037 15.1385 5.3463L15.6399 6.4181C15.7035 6.55435 15.7105 6.71022 15.6594 6.85161C15.6082 6.993 15.5032 7.10838 15.3672 7.1725ZM15.9803 8.39807C15.4645 8.1799 14.9033 8.31658 14.6831 8.47298C12.786 9.81618 13.0652 11.8954 14.3887 12.1826C15.4599 12.4145 15.8226 11.6641 15.8226 11.6641L15.9422 9.5139L15.9803 8.39807ZM9.34319 7.16395L9.30376 7.16527C9.24664 7.16668 9.19128 7.14543 9.14978 7.10615C9.10829 7.06687 9.08403 7.01275 9.08231 6.95564L9.05536 5.98504C9.05395 5.92792 9.0752 5.87256 9.11449 5.83106C9.15377 5.78956 9.20788 5.7653 9.26499 5.76358L9.30442 5.76227C9.36154 5.76085 9.4169 5.78211 9.4584 5.82139C9.4999 5.86067 9.52416 5.91478 9.52588 5.9719L9.55282 6.9425C9.55424 6.99962 9.53298 7.05498 9.4937 7.09648C9.45442 7.13797 9.40031 7.16223 9.34319 7.16395Z" fill="#F7DECE"/>
<path d="M9.32847 8.78507L10.305 8.71607C10.305 8.71607 10.5534 8.69701 10.7348 8.5301C10.8478 8.42561 10.9352 8.26396 10.9168 8.01096C10.8701 7.3525 10.2117 7.39916 10.2117 7.39916L9.94684 7.41821L9.55321 7.44581L9.23581 7.46816L9.32847 8.78507Z" fill="#F7DECE"/>
<path d="M9.34015 8.78433L9.31583 8.7863C9.26039 8.78992 9.20576 8.77153 9.16381 8.73511C9.12185 8.69869 9.09596 8.64718 9.09175 8.59179L9.02801 7.69281C9.02439 7.63737 9.04278 7.58274 9.0792 7.54079C9.11562 7.49883 9.16712 7.47294 9.22252 7.46873L9.24683 7.46676C9.30227 7.46314 9.3569 7.48153 9.39886 7.51795C9.44082 7.55437 9.46671 7.60587 9.47092 7.66127L9.53466 8.56024C9.53846 8.61572 9.52013 8.67045 9.48367 8.71245C9.44722 8.75444 9.39561 8.78029 9.34015 8.78433Z" fill="#F7DECE"/>
<path d="M9.42703 9.06202L9.54992 10.1746L9.92515 10.1424C9.92515 10.1424 10.1164 10.118 10.2623 9.98727C10.3648 9.89593 10.4449 9.75333 10.42 9.52465C10.3582 8.9687 9.80226 9.02982 9.80226 9.02982L9.42703 9.06202Z" fill="#F7DECE"/>
<path d="M9.56055 10.1732L9.54018 10.1759C9.49351 10.1823 9.44621 10.17 9.40855 10.1417C9.3709 10.1134 9.34594 10.0713 9.3391 10.0247L9.23264 9.26835C9.22625 9.22168 9.23855 9.17438 9.26685 9.13672C9.29515 9.09907 9.33718 9.07411 9.38378 9.06727L9.40415 9.06464C9.45083 9.05825 9.49813 9.07055 9.53579 9.09885C9.57344 9.12715 9.5984 9.16918 9.60524 9.21578L9.7117 9.97215C9.71808 10.0188 9.70579 10.0661 9.67749 10.1038C9.64918 10.1414 9.60716 10.1664 9.56055 10.1732Z" fill="#F7DECE"/>
<path d="M9.75115 5.48593C9.75115 5.48593 9.9864 5.49775 10.1934 5.37487C10.3432 5.28615 10.4786 5.12844 10.499 4.83535C10.5476 4.13615 9.8484 4.08753 9.8484 4.08753L9.4988 4.06321L9.40155 4.05664L9.30429 5.45504L9.75115 5.48593Z" fill="#F7DECE"/>
<path d="M9.32412 5.45632L9.2847 5.45369C9.22773 5.44948 9.17473 5.42296 9.1372 5.3799C9.09967 5.33683 9.08065 5.2807 9.08427 5.22369L9.1513 4.25506C9.15551 4.1981 9.18203 4.14509 9.22509 4.10757C9.26816 4.07004 9.32429 4.05102 9.3813 4.05463L9.42073 4.05726C9.47769 4.06148 9.5307 4.08799 9.56822 4.13106C9.60575 4.17412 9.62477 4.23026 9.62115 4.28726L9.55412 5.25589C9.55008 5.31292 9.52361 5.36603 9.4805 5.40359C9.4374 5.44115 9.38117 5.46011 9.32412 5.45632Z" fill="#F7DECE"/>
<path d="M10.0115 7.14523C10.0115 7.14523 10.2468 7.13405 10.4406 6.99145C10.5813 6.88828 10.7009 6.71874 10.6923 6.425C10.6726 5.72448 9.97209 5.7442 9.97209 5.7442L9.62183 5.75405L9.28406 5.76325L9.32349 7.16494L10.0115 7.14523Z" fill="#F7DECE"/>
<path d="M14.95 13.1431H12.4581C12.188 13.1431 12.075 13.2765 11.6709 13.9389L8.79126 18.3411L0 16.344V23.0002H10.7541C11.6301 23.0002 12.4187 22.7985 12.7486 21.9869L15.7931 14.347C16.0724 13.4716 15.5723 13.1431 14.95 13.1431Z" fill="#2F7889"/>
</svg>
