<svg width="28" height="24" viewBox="0 0 28 24" fill="none" xmlns="http://www.w3.org/2000/svg">
<path d="M26.25 3.42857H19.8625L18.935 1.09715C18.8081 0.77497 18.5848 0.49785 18.2944 0.302082C18.004 0.106313 17.66 0.00102369 17.3075 3.593e-06H10.6925C10.3385 -0.000706247 9.99258 0.103777 9.70044 0.299659C9.40831 0.49554 9.18369 0.773608 9.05625 1.09715L8.1375 3.42857H1.75C1.28587 3.42857 0.840752 3.60919 0.512563 3.93068C0.184374 4.25217 0 4.6882 0 5.14286V22.2857C0 22.7404 0.184374 23.1764 0.512563 23.4979C0.840752 23.8194 1.28587 24 1.75 24H26.25C26.7141 24 27.1593 23.8194 27.4874 23.4979C27.8156 23.1764 28 22.7404 28 22.2857V5.14286C28 4.6882 27.8156 4.25217 27.4874 3.93068C27.1593 3.60919 26.7141 3.42857 26.25 3.42857ZM26.25 22.2857H1.75V5.14286H9.33625L10.6925 1.71429H17.3075L18.6637 5.14286H26.25V22.2857Z" fill="#FF4207"/>
<path d="M6.125 12.8569C6.125 14.3826 6.58686 15.8741 7.45218 17.1427C8.31749 18.4113 9.5474 19.4001 10.9864 19.9839C12.4253 20.5678 14.0087 20.7206 15.5363 20.4229C17.0639 20.1253 18.4671 19.3905 19.5685 18.3117C20.6698 17.2328 21.4198 15.8583 21.7237 14.3618C22.0275 12.8654 21.8716 11.3143 21.2756 9.90473C20.6795 8.49513 19.6702 7.29033 18.3751 6.44267C17.0801 5.59501 15.5575 5.14258 14 5.14258C11.9114 5.14258 9.90838 5.95533 8.43153 7.40204C6.95469 8.84875 6.125 10.8109 6.125 12.8569ZM20.475 12.8569C20.475 14.1114 20.0952 15.3377 19.3838 16.3808C18.6723 17.4238 17.661 18.2368 16.4779 18.7169C15.2947 19.197 13.9928 19.3226 12.7368 19.0778C11.4808 18.8331 10.327 18.229 9.42148 17.3419C8.51594 16.4549 7.89925 15.3247 7.64942 14.0943C7.39958 12.8639 7.5278 11.5886 8.01788 10.4296C8.50796 9.27055 9.33787 8.27993 10.4027 7.58297C11.4675 6.88601 12.7194 6.51401 14 6.51401C15.7166 6.51627 17.3622 7.18527 18.576 8.37429C19.7898 9.56332 20.4727 11.1753 20.475 12.8569Z" fill="#FF4207"/>
<path d="M6.44873 7.56853C6.44873 7.38666 6.37498 7.21225 6.2437 7.08365C6.11243 6.95506 5.93438 6.88281 5.74873 6.88281H3.64873C3.46308 6.88281 3.28503 6.95506 3.15376 7.08365C3.02248 7.21225 2.94873 7.38666 2.94873 7.56853C2.94873 7.75039 3.02248 7.9248 3.15376 8.0534C3.28503 8.182 3.46308 8.25424 3.64873 8.25424H5.74873C5.93438 8.25424 6.11243 8.182 6.2437 8.0534C6.37498 7.9248 6.44873 7.75039 6.44873 7.56853Z" fill="#FF4207"/>
<path d="M9.04749 12.8571C9.05733 13.7611 9.32899 14.6438 9.83086 15.4025C10.3327 16.1612 11.0442 16.7647 11.8825 17.1428L12.6262 15.9685C12.1252 15.8042 11.6687 15.5308 11.2909 15.169C10.913 14.8071 10.6238 14.3661 10.4447 13.8792C10.2657 13.3922 10.2015 12.8718 10.2571 12.3571C10.3126 11.8423 10.4864 11.3466 10.7654 10.907C11.0444 10.4675 11.4214 10.0955 11.8681 9.81901C12.3148 9.54252 12.8196 9.36869 13.3446 9.31056C13.8696 9.25243 14.4013 9.3115 14.8997 9.48335C15.3981 9.6552 15.8504 9.93536 16.2225 10.3028L16.975 9.11997C16.2587 8.55143 15.3922 8.19399 14.4764 8.08927C13.5607 7.98456 12.6335 8.13689 11.8027 8.52852C10.972 8.92014 10.2719 9.53495 9.78412 10.3013C9.29633 11.0677 9.04086 11.954 9.04749 12.8571Z" fill="#FF4207"/>
</svg>
