<svg width="22" height="21" viewBox="0 0 22 21" fill="none" xmlns="http://www.w3.org/2000/svg">
<path d="M0 10.5C0 9.55821 0.12067 8.64433 0.347545 7.77273C1.54684 7.8343 2.73733 7.24311 3.37898 6.14247C4.02014 5.04267 3.94247 3.72719 3.29033 2.72965C4.60189 1.45319 6.23515 0.499907 8.05863 0C8.60442 1.05945 9.71663 1.78494 11 1.78494C12.2834 1.78494 13.3956 1.05945 13.9414 0C15.7649 0.499907 17.3982 1.45319 18.7097 2.72965C18.0575 3.72719 17.9798 5.04267 18.621 6.14247C19.2626 7.24311 20.4532 7.8343 21.6525 7.77273C21.8793 8.64433 22 9.55821 22 10.5C22 11.4418 21.8793 12.3556 21.6525 13.2273C20.4532 13.1657 19.2626 13.7569 18.621 14.8575C17.9798 15.9574 18.0575 17.2728 18.7097 18.2703C17.3982 19.5468 15.7649 20.5001 13.9414 21C13.3956 19.9406 12.2834 19.215 11 19.215C9.71663 19.215 8.60442 19.9406 8.05863 21C6.23515 20.5001 4.60189 19.5468 3.29033 18.2703C3.94247 17.2728 4.02014 15.9574 3.37898 14.8575C2.73733 13.7569 1.54684 13.1657 0.347545 13.2273C0.12067 12.3556 0 11.4418 0 10.5ZM5.28424 13.7681C5.97735 14.9571 6.17604 16.3239 5.905 17.6069C6.35357 17.923 6.83106 18.1969 7.33138 18.4245C8.31794 17.5498 9.61312 17.0363 11 17.0363C12.3869 17.0363 13.682 17.5498 14.6686 18.4245C15.1689 18.1969 15.6464 17.923 16.095 17.6069C15.8239 16.3239 16.0226 14.9571 16.7158 13.7681C17.4088 12.5793 18.5048 11.7255 19.7621 11.3165C19.7872 11.0465 19.8 10.7743 19.8 10.5C19.8 10.2258 19.7872 9.95344 19.7621 9.6836C18.5048 9.27454 17.4088 8.42079 16.7158 7.23186C16.0226 6.04294 15.8239 4.67612 16.095 3.39312C15.6464 3.07702 15.1689 2.80313 14.6686 2.57551C13.682 3.4502 12.3869 3.96371 11 3.96371C9.61312 3.96371 8.31794 3.4502 7.33138 2.57551C6.83106 2.80313 6.35357 3.07702 5.905 3.39312C6.17604 4.67612 5.97735 6.04294 5.28424 7.23186C4.59114 8.42079 3.49529 9.27454 2.23796 9.6836C2.21273 9.95344 2.2 10.2258 2.2 10.5C2.2 10.7743 2.21273 11.0465 2.23796 11.3165C3.49529 11.7255 4.59114 12.5793 5.28424 13.7681ZM11 13.7681C9.17741 13.7681 7.7 12.305 7.7 10.5C7.7 8.69509 9.17741 7.23186 11 7.23186C12.8226 7.23186 14.3 8.69509 14.3 10.5C14.3 12.305 12.8226 13.7681 11 13.7681ZM11 11.5894C11.6075 11.5894 12.1 11.1017 12.1 10.5C12.1 9.89832 11.6075 9.4106 11 9.4106C10.3925 9.4106 9.9 9.89832 9.9 10.5C9.9 11.1017 10.3925 11.5894 11 11.5894Z" fill="#488466"/>
</svg>
